<svg width="613" height="104" xmlns="http://www.w3.org/2000/svg" xmlns:xlink="http://www.w3.org/1999/xlink" overflow="hidden"><defs><clipPath id="clip0"><rect x="333" y="360" width="613" height="104"/></clipPath><clipPath id="clip1"><rect x="334" y="360" width="612" height="103"/></clipPath><clipPath id="clip2"><rect x="334" y="360" width="612" height="103"/></clipPath></defs><g clip-path="url(#clip0)" transform="translate(-333 -360)"><g clip-path="url(#clip1)"><g clip-path="url(#clip2)"><path d="M0 0 808.688 0 808.688 454.887 0 454.887Z" fill="#FFFFFF" fill-rule="evenodd" fill-opacity="1" transform="matrix(1.00474 0 0 1 221.076 201.09)"/><path d="M110.819 156.703 722.959 156.703 722.959 262.459 110.819 262.459Z" fill="#2D92FF" fill-rule="evenodd" fill-opacity="1" transform="matrix(1.00474 0 0 1 221.076 201.09)"/><path d="M421.593 237.62 421.593 180.72 447.378 180.72C453.538 180.72 458.43 182.431 462.054 185.853 465.678 189.267 467.49 193.856 467.49 199.621 467.49 205.386 465.678 209.98 462.054 213.402 458.43 216.824 453.538 218.535 447.378 218.535L431.017 218.535 431.017 237.62 421.593 237.62ZM431.017 209.506 446.97 209.506C450.725 209.506 453.511 208.642 455.328 206.913 457.153 205.184 458.066 202.754 458.066 199.621 458.066 196.55 457.153 194.15 455.328 192.421 453.511 190.693 450.725 189.828 446.97 189.828L431.017 189.828 431.017 209.506ZM471.076 237.62 471.076 193.816 480.513 193.816 478.828 205.452C478.003 204.311 477.933 203.105 478.617 201.832 479.302 200.551 480.302 199.252 481.618 197.936 482.935 196.611 484.598 195.488 486.607 194.567 488.616 193.637 490.986 193.172 493.715 193.172L495.794 193.172 495.794 202.609 493.385 202.609C490.744 202.609 488.463 203.328 486.541 204.767 484.628 206.207 483.145 208.115 482.092 210.493 481.039 212.862 480.513 215.411 480.513 218.14L480.513 237.62 471.076 237.62ZM517.167 238.265C512.753 238.265 508.901 237.252 505.611 235.225 502.32 233.198 499.797 230.465 498.042 227.025 496.296 223.585 495.423 219.816 495.423 215.718 495.423 211.568 496.296 207.786 498.042 204.373 499.797 200.959 502.32 198.239 505.611 196.212 508.901 194.185 512.753 193.172 517.167 193.172 521.642 193.172 525.508 194.185 528.763 196.212 532.027 198.239 534.532 200.959 536.279 204.373 538.025 207.786 538.898 211.568 538.898 215.718 538.898 219.816 538.025 223.585 536.279 227.025 534.532 230.465 532.027 233.198 528.763 235.225 525.508 237.252 521.642 238.265 517.167 238.265ZM517.167 229.394C519.843 229.394 522.081 228.789 523.88 227.578 525.687 226.358 527.069 224.704 528.026 222.615 528.991 220.518 529.474 218.219 529.474 215.718 529.474 213.165 528.991 210.857 528.026 208.795 527.069 206.724 525.687 205.083 523.88 203.872 522.081 202.653 519.843 202.043 517.167 202.043 514.543 202.043 512.315 202.653 510.481 203.872 508.647 205.092 507.252 206.733 506.295 208.795 505.339 210.857 504.86 213.165 504.86 215.718 504.86 218.219 505.339 220.518 506.295 222.615 507.252 224.704 508.647 226.358 510.481 227.578 512.315 228.789 514.543 229.394 517.167 229.394ZM543.534 253.639 543.534 193.816 552.971 193.816 552.524 197.963C552.436 197.568 553.713 196.673 556.354 195.277 559.004 193.874 562.141 193.172 565.765 193.172 570.021 193.172 573.75 194.189 576.953 196.225 580.164 198.252 582.643 200.972 584.389 204.386 586.144 207.79 587.022 211.568 587.022 215.718 587.022 219.816 586.144 223.585 584.389 227.025 582.643 230.456 580.164 233.189 576.953 235.225 573.75 237.252 570.021 238.265 565.765 238.265 562.132 238.265 558.995 237.541 556.354 236.094 553.713 234.637 552.436 233.716 552.524 233.33L552.971 253.639 543.534 253.639ZM564.949 229.394C567.643 229.394 569.915 228.784 571.767 227.564 573.627 226.345 575.062 224.691 576.071 222.602 577.08 220.505 577.585 218.211 577.585 215.718 577.585 213.183 577.08 210.884 576.071 208.821 575.062 206.751 573.627 205.105 571.767 203.886 569.915 202.657 567.643 202.043 564.949 202.043 562.334 202.043 560.109 202.653 558.276 203.872 556.442 205.092 555.046 206.733 554.09 208.795 553.133 210.857 552.655 213.165 552.655 215.718 552.655 218.219 553.133 220.518 554.09 222.615 555.046 224.704 556.442 226.358 558.276 227.578 560.109 228.789 562.334 229.394 564.949 229.394ZM591.651 237.62 591.651 177.64 601.088 177.64 600.614 198.173C600.491 197.822 601.593 196.901 603.918 195.409 606.243 193.917 609.214 193.172 612.829 193.172 615.918 193.172 618.818 193.904 621.529 195.37 624.249 196.826 626.456 198.998 628.15 201.885 629.843 204.763 630.69 208.269 630.69 212.402L630.69 237.62 621.253 237.62 621.253 212.56C621.253 209.348 620.362 206.794 618.581 204.899 616.799 202.995 614.478 202.043 611.618 202.043 609.644 202.043 607.867 202.482 606.287 203.359 604.716 204.237 603.457 205.474 602.51 207.071 601.562 208.668 601.088 210.528 601.088 212.652L601.088 237.62 591.651 237.62ZM657.061 238.265C652.647 238.265 648.773 237.256 645.438 235.238 642.104 233.211 639.515 230.478 637.673 227.038 635.839 223.598 634.922 219.825 634.922 215.718 634.922 211.568 635.795 207.786 637.541 204.373 639.296 200.959 641.819 198.239 645.109 196.212 648.4 194.185 652.252 193.172 656.666 193.172 661.141 193.172 665.006 194.185 668.262 196.212 671.526 198.239 674.031 200.959 675.777 204.373 677.523 207.786 678.396 211.568 678.396 215.718L678.396 219.825 644.767 219.825C644.881 220.694 645.473 222.001 646.544 223.747 647.623 225.485 649.058 226.862 650.848 227.88 652.647 228.889 654.744 229.394 657.14 229.394 659.667 229.394 661.768 228.85 663.444 227.762 665.129 226.665 666.603 224.945 667.867 222.602L677.962 222.602C675.847 228.043 673.127 232.013 669.802 234.514 666.485 237.015 662.238 238.265 657.061 238.265ZM644.912 210.796 668.446 210.796C668.165 209.014 666.985 207.11 664.905 205.083 662.834 203.056 660.088 202.043 656.666 202.043 653.243 202.043 650.506 203.056 648.452 205.083 646.399 207.11 645.219 209.014 644.912 210.796ZM686.836 237.62 686.836 202.53 678.583 202.53 678.583 193.816 686.836 193.816 686.836 179.338 696.274 179.338 696.274 193.816 705.566 193.816 705.566 202.53 696.274 202.53 696.274 237.62 686.836 237.62Z" fill="#FFFFFF" fill-rule="nonzero" fill-opacity="1" transform="matrix(1.00474 0 0 1 221.076 201.09)"/><path d="M125.966 166.215 398.792 166.215 398.792 252.947 125.966 252.947Z" fill="#FFFFFF" fill-rule="evenodd" fill-opacity="1" transform="matrix(1.00474 0 0 1 221.076 201.09)"/><path d="M140.458 239.214 140.458 182.708 147.881 182.708 182.801 230.25 182.801 182.708 189.197 182.708 189.197 239.214 181.774 239.214 146.868 191.501 146.868 239.214 140.458 239.214ZM220.609 239.898C216.283 239.898 212.497 238.916 209.25 236.95 206.012 234.984 203.494 232.326 201.695 228.974 199.905 225.613 199.01 221.914 199.01 217.878 199.01 213.78 199.865 210.068 201.577 206.743 203.288 203.408 205.736 200.763 208.921 198.806 212.106 196.84 215.862 195.858 220.188 195.858 224.567 195.858 228.335 196.84 231.494 198.806 234.653 200.763 237.084 203.408 238.786 206.743 240.497 210.068 241.353 213.78 241.353 217.878L241.353 220.431 205.591 220.431C205.933 222.941 206.745 225.236 208.026 227.315 209.307 229.386 211.027 231.036 213.186 232.264 215.344 233.484 217.85 234.094 220.701 234.094 223.711 234.094 226.238 233.427 228.283 232.093 230.336 230.751 231.933 229.026 233.074 226.92L240.076 226.92C238.593 230.737 236.242 233.857 233.021 236.279 229.81 238.692 225.672 239.898 220.609 239.898ZM205.67 214.456 234.693 214.456C234.122 210.814 232.587 207.774 230.086 205.334 227.585 202.886 224.286 201.662 220.188 201.662 216.09 201.662 212.804 202.886 210.329 205.334 207.855 207.774 206.302 210.814 205.67 214.456ZM265.85 239.898C262.945 239.898 260.186 239.201 257.571 237.806 254.956 236.41 252.837 234.335 251.213 231.58 249.59 228.816 248.778 225.415 248.778 221.379L248.778 196.529 255.175 196.529 255.175 221.208C255.175 225.078 256.298 228.193 258.545 230.553 260.8 232.914 263.66 234.094 267.126 234.094 269.522 234.094 271.685 233.541 273.615 232.435 275.555 231.321 277.108 229.798 278.275 227.868 279.442 225.929 280.025 223.678 280.025 221.116L280.025 196.529 286.422 196.529 286.422 239.214 280.025 239.214 280.025 232.554C278.49 234.607 276.612 236.345 274.392 237.766 272.172 239.188 269.325 239.898 265.85 239.898ZM297.525 239.214 297.525 196.529 303.922 196.529 303.922 207.032C304.15 206.295 304.588 205.317 305.238 204.097 305.896 202.869 306.848 201.631 308.094 200.385 309.349 199.131 310.928 198.064 312.832 197.187 314.745 196.301 317.009 195.858 319.624 195.858L320.058 195.858 320.058 202.254 319.282 202.254C316.097 202.254 313.35 203.123 311.042 204.86 308.743 206.598 306.98 208.849 305.751 211.613 304.531 214.368 303.922 217.308 303.922 220.431L303.922 239.214 297.525 239.214ZM343.869 239.898C339.71 239.898 336.082 238.916 332.984 236.95 329.886 234.984 327.482 232.326 325.771 228.974 324.06 225.613 323.204 221.914 323.204 217.878 323.204 213.78 324.06 210.068 325.771 206.743 327.482 203.408 329.886 200.763 332.984 198.806 336.082 196.84 339.71 195.858 343.869 195.858 347.397 195.858 350.424 196.542 352.951 197.911 355.487 199.271 357.553 201.118 359.151 203.452L359.151 196.529 365.547 196.529 365.547 239.214 359.151 239.214 359.151 232.383C357.553 234.664 355.487 236.489 352.951 237.858 350.424 239.218 347.397 239.898 343.869 239.898ZM344.725 234.094C347.91 234.094 350.595 233.357 352.78 231.883 354.974 230.4 356.641 228.421 357.782 225.946 358.922 223.463 359.493 220.774 359.493 217.878 359.493 214.921 358.922 212.218 357.782 209.77 356.641 207.322 354.974 205.361 352.78 203.886 350.595 202.404 347.91 201.662 344.725 201.662 341.592 201.662 338.885 202.404 336.604 203.886 334.331 205.361 332.598 207.322 331.405 209.77 330.211 212.218 329.614 214.921 329.614 217.878 329.614 220.774 330.211 223.463 331.405 225.946 332.598 228.421 334.331 230.4 336.604 231.883 338.885 233.357 341.592 234.094 344.725 234.094ZM376.651 239.214 376.651 179.457 383.048 179.457 383.048 239.214 376.651 239.214Z" fill="#2D92FF" fill-rule="nonzero" fill-opacity="1" transform="matrix(1.00474 0 0 1 221.076 201.09)"/></g></g></g></svg>