<svg width="278" height="148" xmlns="http://www.w3.org/2000/svg" xmlns:xlink="http://www.w3.org/1999/xlink" overflow="hidden"><defs><clipPath id="clip0"><rect x="530" y="232" width="278" height="148"/></clipPath><clipPath id="clip1"><rect x="531" y="232" width="276" height="148"/></clipPath><clipPath id="clip2"><rect x="531" y="232" width="276" height="148"/></clipPath></defs><g clip-path="url(#clip0)" transform="translate(-530 -232)"><g clip-path="url(#clip1)"><g clip-path="url(#clip2)"><path d="M0 0 957.702 0 957.702 538.707 0 538.707Z" fill="#FFFFFF" fill-rule="evenodd" fill-opacity="1" transform="matrix(1 0 0 1.00012 161.212 90.6592)"/><path d="M369.633 141.013 645.852 141.013 645.852 289.162 369.633 289.162Z" fill="#2D92FF" fill-rule="evenodd" fill-opacity="1" transform="matrix(1 0 0 1.00012 161.212 90.6592)"/><path d="M381.321 152.466 508.355 152.466 508.355 277.709 381.321 277.709Z" fill="#FFFFFF" fill-rule="evenodd" fill-opacity="1" transform="matrix(1 0 0 1.00012 161.212 90.6592)"/><path d="M408.388 260.858 408.388 176.326 419.487 176.326 471.721 247.452 471.721 176.326 481.292 176.326 481.292 260.858 470.178 260.858 417.959 189.482 417.959 260.858 408.388 260.858Z" fill="#2D92FF" fill-rule="nonzero" fill-opacity="1" transform="matrix(1 0 0 1.00012 161.212 90.6592)"/><path d="M513.836 152.466 640.87 152.466 640.87 277.709 513.836 277.709Z" fill="#2D92FF" fill-rule="evenodd" fill-opacity="1" transform="matrix(1 0 0 1.00012 161.212 90.6592)"/><path d="M547.607 260.858 547.607 171.026 588.306 171.026C598.022 171.026 605.744 173.728 611.469 179.132 617.206 184.525 620.074 191.773 620.074 200.877 620.074 209.98 617.206 217.233 611.469 222.637 605.744 228.03 598.022 230.727 588.306 230.727L562.478 230.727 562.478 260.858 547.607 260.858ZM562.478 216.48 587.667 216.48C593.601 216.48 598.002 215.118 600.87 212.396 603.748 209.663 605.188 205.823 605.188 200.877 605.188 196.013 603.748 192.22 600.87 189.498 598.002 186.765 593.601 185.398 587.667 185.398L562.478 185.398 562.478 216.48Z" fill="#FFFFFF" fill-rule="nonzero" fill-opacity="1" transform="matrix(1 0 0 1.00012 161.212 90.6592)"/></g></g></g></svg>