<svg width="156" height="27" xmlns="http://www.w3.org/2000/svg" xmlns:xlink="http://www.w3.org/1999/xlink" overflow="hidden"><defs><clipPath id="clip0"><rect x="436" y="229" width="156" height="27"/></clipPath><clipPath id="clip1"><rect x="436" y="230" width="156" height="26"/></clipPath><clipPath id="clip2"><rect x="436" y="230" width="156" height="26"/></clipPath></defs><g clip-path="url(#clip0)" transform="translate(-436 -229)"><g clip-path="url(#clip1)"><g clip-path="url(#clip2)"><path d="M0 0 204.134 0 204.134 114.825 0 114.825Z" fill="#FFFFFF" fill-rule="evenodd" fill-opacity="1" transform="matrix(1.01557 0 0 1 407.038 189.87)"/><path d="M27.9736 39.5559 182.494 39.5559 182.494 66.2514 27.9736 66.2514Z" fill="#2D92FF" fill-rule="evenodd" fill-opacity="1" transform="matrix(1.01557 0 0 1 407.038 189.87)"/><path d="M106.421 59.9814 106.421 45.6184 112.93 45.6184C114.485 45.6184 115.72 46.0503 116.634 46.9141 117.549 47.7759 118.007 48.9343 118.007 50.3895 118.007 51.8447 117.549 53.0044 116.634 53.8682 115.72 54.732 114.485 55.1639 112.93 55.1639L108.8 55.1639 108.8 59.9814 106.421 59.9814ZM108.8 52.8847 112.827 52.8847C113.775 52.8847 114.478 52.6666 114.937 52.2302 115.397 51.7937 115.628 51.1803 115.628 50.3895 115.628 49.6143 115.397 49.0085 114.937 48.572 114.478 48.1358 113.775 47.9175 112.827 47.9175L108.8 47.9175 108.8 52.8847ZM118.912 59.9814 118.912 48.9242 121.294 48.9242 120.869 51.8614C120.66 51.5734 120.643 51.2689 120.815 50.9476 120.988 50.6242 121.241 50.2963 121.573 49.9642 121.905 49.6297 122.325 49.3462 122.832 49.1137 123.339 48.879 123.938 48.7616 124.626 48.7616L125.151 48.7616 125.151 51.1437 124.543 51.1437C123.876 51.1437 123.301 51.3252 122.816 51.6885 122.333 52.052 121.958 52.5336 121.692 53.1339 121.427 53.7319 121.294 54.3753 121.294 55.0642L121.294 59.9814 118.912 59.9814ZM130.546 60.1442C129.432 60.1442 128.46 59.8885 127.629 59.3769 126.799 58.8652 126.162 58.1753 125.719 57.307 125.278 56.4386 125.058 55.4872 125.058 54.4528 125.058 53.4052 125.278 52.4506 125.719 51.589 126.162 50.7272 126.799 50.0406 127.629 49.529 128.46 49.0173 129.432 48.7616 130.546 48.7616 131.676 48.7616 132.652 49.0173 133.473 49.529 134.297 50.0406 134.93 50.7272 135.371 51.589 135.811 52.4506 136.032 53.4052 136.032 54.4528 136.032 55.4872 135.811 56.4386 135.371 57.307 134.93 58.1753 134.297 58.8652 133.473 59.3769 132.652 59.8885 131.676 60.1442 130.546 60.1442ZM130.546 57.905C131.222 57.905 131.787 57.7523 132.241 57.4466 132.697 57.1386 133.046 56.7211 133.287 56.1938 133.531 55.6644 133.653 55.0841 133.653 54.4528 133.653 53.8083 133.531 53.2257 133.287 52.7052 133.046 52.1825 132.697 51.7682 132.241 51.4626 131.787 51.1549 131.222 51.0009 130.546 51.0009 129.884 51.0009 129.322 51.1549 128.859 51.4626 128.396 51.7705 128.044 52.1847 127.802 52.7052 127.561 53.2257 127.44 53.8083 127.44 54.4528 127.44 55.0841 127.561 55.6644 127.802 56.1938 128.044 56.7211 128.396 57.1386 128.859 57.4466 129.322 57.7523 129.884 57.905 130.546 57.905ZM137.202 64.025 137.202 48.9242 139.584 48.9242 139.471 49.971C139.449 49.8713 139.771 49.6453 140.438 49.293 141.107 48.9388 141.899 48.7616 142.814 48.7616 143.888 48.7616 144.829 49.0183 145.638 49.5323 146.448 50.0439 147.074 50.7305 147.515 51.5923 147.958 52.4516 148.18 53.4052 148.18 54.4528 148.18 55.4872 147.958 56.4386 147.515 57.307 147.074 58.173 146.448 58.8629 145.638 59.3769 144.829 59.8885 143.888 60.1442 142.814 60.1442 141.897 60.1442 141.105 59.9615 140.438 59.5962 139.771 59.2284 139.449 58.996 139.471 58.8985L139.584 64.025 137.202 64.025ZM142.608 57.905C143.288 57.905 143.861 57.751 144.329 57.443 144.798 57.1353 145.161 56.7178 145.415 56.1905 145.67 55.6612 145.797 55.0821 145.797 54.4528 145.797 53.8129 145.67 53.2326 145.415 52.7118 145.161 52.1893 144.798 51.7738 144.329 51.4661 143.861 51.1559 143.288 51.0009 142.608 51.0009 141.948 51.0009 141.386 51.1549 140.923 51.4626 140.46 51.7705 140.108 52.1847 139.867 52.7052 139.625 53.2257 139.504 53.8083 139.504 54.4528 139.504 55.0841 139.625 55.6644 139.867 56.1938 140.108 56.7211 140.46 57.1386 140.923 57.4466 141.386 57.7523 141.948 57.905 142.608 57.905ZM149.348 59.9814 149.348 44.8409 151.73 44.8409 151.61 50.024C151.579 49.9354 151.858 49.7029 152.445 49.3263 153.031 48.9497 153.781 48.7616 154.694 48.7616 155.474 48.7616 156.206 48.9464 156.89 49.3164 157.577 49.684 158.134 50.2322 158.561 50.961 158.989 51.6875 159.202 52.5725 159.202 53.6157L159.202 59.9814 156.82 59.9814 156.82 53.6556C156.82 52.8448 156.595 52.2001 156.146 51.7218 155.696 51.2412 155.11 51.0009 154.388 51.0009 153.89 51.0009 153.441 51.1117 153.042 51.3331 152.646 51.5547 152.328 51.8669 152.089 52.2701 151.85 52.6732 151.73 53.1427 151.73 53.6789L151.73 59.9814 149.348 59.9814ZM165.859 60.1442C164.745 60.1442 163.767 59.8895 162.925 59.3801 162.084 58.8685 161.43 58.1786 160.965 57.3103 160.502 56.4419 160.271 55.4895 160.271 54.4528 160.271 53.4052 160.491 52.4506 160.932 51.589 161.375 50.7272 162.012 50.0406 162.842 49.529 163.673 49.0173 164.645 48.7616 165.759 48.7616 166.889 48.7616 167.865 49.0173 168.687 49.529 169.51 50.0406 170.143 50.7272 170.584 51.589 171.024 52.4506 171.245 53.4052 171.245 54.4528L171.245 55.4895 162.756 55.4895C162.785 55.7089 162.934 56.0388 163.204 56.4795 163.477 56.9182 163.839 57.2658 164.291 57.5228 164.745 57.7775 165.274 57.905 165.879 57.905 166.517 57.905 167.047 57.7677 167.47 57.493 167.896 57.2161 168.268 56.7819 168.587 56.1905L171.135 56.1905C170.601 57.5639 169.915 58.5661 169.075 59.1974 168.238 59.8287 167.166 60.1442 165.859 60.1442ZM162.792 53.2104 168.733 53.2104C168.662 52.7605 168.364 52.2799 167.839 51.7682 167.316 51.2566 166.623 51.0009 165.759 51.0009 164.895 51.0009 164.204 51.2566 163.686 51.7682 163.168 52.2799 162.87 52.7605 162.792 53.2104ZM173.375 59.9814 173.375 51.1238 171.292 51.1238 171.292 48.9242 173.375 48.9242 173.375 45.2695 175.758 45.2695 175.758 48.9242 178.103 48.9242 178.103 51.1238 175.758 51.1238 175.758 59.9814 173.375 59.9814Z" fill="#FFFFFF" fill-rule="nonzero" fill-opacity="1" transform="matrix(1.01557 0 0 1 407.038 189.87)"/><path d="M31.7971 41.957 100.665 41.957 100.665 63.8504 31.7971 63.8504Z" fill="#FFFFFF" fill-rule="evenodd" fill-opacity="1" transform="matrix(1.01557 0 0 1 407.038 189.87)"/><path d="M35.4552 60.3838 35.4552 46.1202 37.329 46.1202 46.1437 58.121 46.1437 46.1202 47.7582 46.1202 47.7582 60.3838 45.8845 60.3838 37.0733 48.3398 37.0733 60.3838 35.4552 60.3838ZM55.6874 60.5564C54.5954 60.5564 53.6397 60.3086 52.8201 59.8123 52.0027 59.316 51.3671 58.6451 50.913 57.799 50.4612 56.9505 50.2353 56.0168 50.2353 54.998 50.2353 53.9636 50.4511 53.0266 50.8832 52.1873 51.3151 51.3454 51.9331 50.6778 52.7371 50.1838 53.541 49.6875 54.4891 49.4396 55.5811 49.4396 56.6865 49.4396 57.6376 49.6875 58.4351 50.1838 59.2325 50.6778 59.8461 51.3454 60.2757 52.1873 60.7076 53.0266 60.9237 53.9636 60.9237 54.998L60.9237 55.6425 51.8965 55.6425C51.9828 56.2761 52.1878 56.8554 52.5111 57.3802 52.8345 57.903 53.2687 58.3195 53.8137 58.6294 54.3584 58.9374 54.991 59.0914 55.7106 59.0914 56.4704 59.0914 57.1083 58.923 57.6245 58.5863 58.1428 58.2475 58.5459 57.8121 58.8339 57.2805L60.6014 57.2805C60.227 58.244 59.6336 59.0315 58.8205 59.6429 58.01 60.252 56.9654 60.5564 55.6874 60.5564ZM51.9164 54.1342 59.2426 54.1342C59.0984 53.2149 58.711 52.4475 58.0796 51.8316 57.4483 51.2137 56.6156 50.9047 55.5811 50.9047 54.5467 50.9047 53.7172 51.2137 53.0925 51.8316 52.468 52.4475 52.076 53.2149 51.9164 54.1342ZM67.1074 60.5564C66.3741 60.5564 65.6777 60.3805 65.0176 60.0284 64.3575 59.676 63.8226 59.1522 63.4126 58.4568 63.003 57.7591 62.798 56.9006 62.798 55.8818L62.798 49.609 64.4128 49.609 64.4128 55.8386C64.4128 56.8155 64.6962 57.6018 65.2634 58.1975 65.8326 58.7935 66.5546 59.0914 67.4295 59.0914 68.0343 59.0914 68.5803 58.9518 69.0675 58.6726 69.5572 58.3914 69.9492 58.007 70.2438 57.5198 70.5384 57.0303 70.6855 56.4621 70.6855 55.8154L70.6855 49.609 72.3003 49.609 72.3003 60.3838 70.6855 60.3838 70.6855 58.7026C70.2981 59.2209 69.824 59.6596 69.2636 60.0183 68.7032 60.3772 67.9846 60.5564 67.1074 60.5564ZM75.103 60.3838 75.103 49.609 76.7178 49.609 76.7178 52.2602C76.7753 52.0742 76.8859 51.8273 77.05 51.5194 77.216 51.2094 77.4564 50.8969 77.7709 50.5823 78.0877 50.2658 78.4863 49.9965 78.9669 49.7751 79.4498 49.5514 80.0213 49.4396 80.6814 49.4396L80.7909 49.4396 80.7909 51.0541 80.595 51.0541C79.791 51.0541 79.0976 51.2735 78.515 51.712 77.9347 52.1507 77.4897 52.7189 77.1795 53.4166 76.8715 54.112 76.7178 54.8541 76.7178 55.6425L76.7178 60.3838 75.103 60.3838ZM86.8014 60.5564C85.7516 60.5564 84.8358 60.3086 84.0538 59.8123 83.2717 59.316 82.6649 58.6451 82.233 57.799 81.8011 56.9505 81.585 56.0168 81.585 54.998 81.585 53.9636 81.8011 53.0266 82.233 52.1873 82.6649 51.3454 83.2717 50.6778 84.0538 50.1838 84.8358 49.6875 85.7516 49.4396 86.8014 49.4396 87.692 49.4396 88.4561 49.6123 89.0939 49.9578 89.7341 50.3011 90.2556 50.7674 90.659 51.3565L90.659 49.609 92.2735 49.609 92.2735 60.3838 90.659 60.3838 90.659 58.6595C90.2556 59.2353 89.7341 59.6959 89.0939 60.0415 88.4561 60.3848 87.692 60.5564 86.8014 60.5564ZM87.0175 59.0914C87.8215 59.0914 88.4992 58.9053 89.0508 58.5333 89.6046 58.1589 90.0254 57.6594 90.3134 57.0346 90.6012 56.4078 90.7453 55.7291 90.7453 54.998 90.7453 54.2516 90.6012 53.5693 90.3134 52.9514 90.0254 52.3334 89.6046 51.8384 89.0508 51.4661 88.4992 51.092 87.8215 50.9047 87.0175 50.9047 86.2266 50.9047 85.5433 51.092 84.9675 51.4661 84.3938 51.8384 83.9563 52.3334 83.6552 52.9514 83.3538 53.5693 83.2031 54.2516 83.2031 54.998 83.2031 55.7291 83.3538 56.4078 83.6552 57.0346 83.9563 57.6594 84.3938 58.1589 84.9675 58.5333 85.5433 58.9053 86.2266 59.0914 87.0175 59.0914ZM95.0764 60.3838 95.0764 45.2996 96.6912 45.2996 96.6912 60.3838 95.0764 60.3838Z" fill="#2D92FF" fill-rule="nonzero" fill-opacity="1" transform="matrix(1.01557 0 0 1 407.038 189.87)"/></g></g></g></svg>