<svg width="157" height="27" xmlns="http://www.w3.org/2000/svg" xmlns:xlink="http://www.w3.org/1999/xlink" overflow="hidden"><defs><clipPath id="clip0"><rect x="436" y="229" width="157" height="27"/></clipPath><clipPath id="clip1"><rect x="436" y="230" width="157" height="26"/></clipPath><clipPath id="clip2"><rect x="436" y="230" width="157" height="26"/></clipPath></defs><g clip-path="url(#clip0)" transform="translate(-436 -229)"><g clip-path="url(#clip1)"><g clip-path="url(#clip2)"><path d="M0 0 204.074 0 204.074 114.792 0 114.792Z" fill="#FFFFFF" fill-rule="evenodd" fill-opacity="1" transform="matrix(1.02238 0 0 1 406.852 189.89)"/><path d="M27.9654 39.5443 182.44 39.5443 182.44 66.232 27.9654 66.232Z" fill="#2D92FF" fill-rule="evenodd" fill-opacity="1" transform="matrix(1.02238 0 0 1 406.852 189.89)"/><path d="M106.39 59.9639 106.39 45.605 112.897 45.605C114.451 45.605 115.686 46.0368 116.6 46.9004 117.515 47.7619 117.972 48.9199 117.972 50.3747 117.972 51.8295 117.515 52.9889 116.6 53.8524 115.686 54.716 114.451 55.1477 112.897 55.1477L108.768 55.1477 108.768 59.9639 106.39 59.9639ZM108.768 52.8692 112.794 52.8692C113.741 52.8692 114.444 52.6512 114.903 52.2149 115.363 51.7786 115.594 51.1654 115.594 50.3747 115.594 49.5998 115.363 48.9941 114.903 48.5578 114.444 48.1217 113.741 47.9035 112.794 47.9035L108.768 47.9035 108.768 52.8692ZM118.877 59.9639 118.877 48.9098 121.258 48.9098 120.833 51.8462C120.625 51.5583 120.607 51.2539 120.78 50.9327 120.953 50.6094 121.205 50.2816 121.537 49.9495 121.87 49.6152 122.289 49.3318 122.796 49.0994 123.303 48.8647 123.901 48.7473 124.59 48.7473L125.115 48.7473 125.115 51.1288 124.507 51.1288C123.84 51.1288 123.265 51.3102 122.78 51.6733 122.297 52.0367 121.923 52.5182 121.657 53.1183 121.391 53.7161 121.258 54.3594 121.258 55.048L121.258 59.9639 118.877 59.9639ZM130.508 60.1266C129.394 60.1266 128.422 59.871 127.592 59.3595 126.761 58.848 126.125 58.1583 125.682 57.2902 125.241 56.4221 125.021 55.471 125.021 54.4369 125.021 53.3896 125.241 52.4352 125.682 51.5739 126.125 50.7124 126.761 50.026 127.592 49.5145 128.422 49.003 129.394 48.7473 130.508 48.7473 131.637 48.7473 132.613 49.003 133.434 49.5145 134.258 50.026 134.89 50.7124 135.331 51.5739 135.772 52.4352 135.992 53.3896 135.992 54.4369 135.992 55.471 135.772 56.4221 135.331 57.2902 134.89 58.1583 134.258 58.848 133.434 59.3595 132.613 59.871 131.637 60.1266 130.508 60.1266ZM130.508 57.888C131.183 57.888 131.748 57.7353 132.202 57.4297 132.658 57.1219 133.007 56.7045 133.248 56.1773 133.492 55.6481 133.614 55.068 133.614 54.4369 133.614 53.7926 133.492 53.2102 133.248 52.6898 133.007 52.1672 132.658 51.7531 132.202 51.4475 131.748 51.1399 131.183 50.9859 130.508 50.9859 129.846 50.9859 129.284 51.1399 128.821 51.4475 128.358 51.7554 128.006 52.1695 127.765 52.6898 127.523 53.2102 127.402 53.7926 127.402 54.4369 127.402 55.068 127.523 55.6481 127.765 56.1773 128.006 56.7045 128.358 57.1219 128.821 57.4297 129.284 57.7353 129.846 57.888 130.508 57.888ZM137.162 64.0063 137.162 48.9098 139.543 48.9098 139.43 49.9563C139.408 49.8567 139.731 49.6308 140.397 49.2785 141.066 48.9245 141.857 48.7473 142.772 48.7473 143.846 48.7473 144.787 49.004 145.595 49.5178 146.405 50.0293 147.031 50.7157 147.472 51.5772 147.915 52.4362 148.136 53.3896 148.136 54.4369 148.136 55.471 147.915 56.4221 147.472 57.2902 147.031 58.156 146.405 58.8457 145.595 59.3595 144.787 59.871 143.846 60.1266 142.772 60.1266 141.855 60.1266 141.063 59.9439 140.397 59.5788 139.731 59.2111 139.408 58.9787 139.43 58.8813L139.543 64.0063 137.162 64.0063ZM142.566 57.888C143.246 57.888 143.819 57.7341 144.286 57.4262 144.756 57.1186 145.118 56.7012 145.373 56.174 145.627 55.6449 145.755 55.066 145.755 54.4369 145.755 53.7971 145.627 53.217 145.373 52.6964 145.118 52.174 144.756 51.7586 144.286 51.451 143.819 51.1409 143.246 50.9859 142.566 50.9859 141.906 50.9859 141.345 51.1399 140.882 51.4475 140.419 51.7554 140.067 52.1695 139.826 52.6898 139.584 53.2102 139.464 53.7926 139.464 54.4369 139.464 55.068 139.584 55.6481 139.826 56.1773 140.067 56.7045 140.419 57.1219 140.882 57.4297 141.345 57.7353 141.906 57.888 142.566 57.888ZM149.304 59.9639 149.304 44.8278 151.686 44.8278 151.566 50.0093C151.535 49.9208 151.813 49.6883 152.4 49.3118 152.987 48.9353 153.736 48.7473 154.649 48.7473 155.428 48.7473 156.16 48.932 156.844 49.302 157.53 49.6694 158.087 50.2175 158.515 50.9461 158.942 51.6723 159.156 52.5571 159.156 53.6L159.156 59.9639 156.774 59.9639 156.774 53.6399C156.774 52.8294 156.55 52.1849 156.1 51.7067 155.65 51.2262 155.065 50.9859 154.343 50.9859 153.845 50.9859 153.396 51.0967 152.998 51.318 152.601 51.5396 152.284 51.8518 152.045 52.2548 151.805 52.6578 151.686 53.1271 151.686 53.6631L151.686 59.9639 149.304 59.9639ZM165.811 60.1266C164.697 60.1266 163.719 59.872 162.878 59.3628 162.036 58.8512 161.383 58.1616 160.918 57.2935 160.455 56.4254 160.224 55.4733 160.224 54.4369 160.224 53.3896 160.444 52.4352 160.885 51.5739 161.328 50.7124 161.964 50.026 162.794 49.5145 163.625 49.003 164.597 48.7473 165.711 48.7473 166.84 48.7473 167.816 49.003 168.637 49.5145 169.461 50.026 170.093 50.7124 170.534 51.5739 170.974 52.4352 171.195 53.3896 171.195 54.4369L171.195 55.4733 162.708 55.4733C162.737 55.6926 162.886 56.0224 163.157 56.463 163.429 56.9016 163.791 57.2491 164.243 57.506 164.697 57.7606 165.226 57.888 165.831 57.888 166.468 57.888 166.998 57.7507 167.421 57.4762 167.847 57.1993 168.219 56.7653 168.538 56.174L171.085 56.174C170.551 57.5471 169.865 58.5489 169.026 59.1801 168.189 59.8112 167.117 60.1266 165.811 60.1266ZM162.745 53.1948 168.684 53.1948C168.613 52.7451 168.315 52.2646 167.79 51.7531 167.267 51.2416 166.574 50.9859 165.711 50.9859 164.847 50.9859 164.156 51.2416 163.638 51.7531 163.12 52.2646 162.822 52.7451 162.745 53.1948ZM173.324 59.9639 173.324 51.1088 171.242 51.1088 171.242 48.9098 173.324 48.9098 173.324 45.2563 175.706 45.2563 175.706 48.9098 178.051 48.9098 178.051 51.1088 175.706 51.1088 175.706 59.9639 173.324 59.9639Z" fill="#FFFFFF" fill-rule="nonzero" fill-opacity="1" transform="matrix(1.02238 0 0 1 406.852 189.89)"/><path d="M31.7878 41.9447 100.636 41.9447 100.636 63.8317 31.7878 63.8317Z" fill="#FFFFFF" fill-rule="evenodd" fill-opacity="1" transform="matrix(1.02238 0 0 1 406.852 189.89)"/><path d="M35.4448 60.3661 35.4448 46.1067 37.3181 46.1067 46.1302 58.104 46.1302 46.1067 47.7442 46.1067 47.7442 60.3661 45.871 60.3661 37.0624 48.3256 37.0624 60.3661 35.4448 60.3661ZM55.6711 60.5387C54.5794 60.5387 53.624 60.2909 52.8046 59.7948 51.9875 59.2987 51.3521 58.6279 50.8981 57.782 50.4464 56.9339 50.2206 56.0004 50.2206 54.9819 50.2206 53.9478 50.4363 53.0111 50.8683 52.172 51.3001 51.3304 51.9179 50.6629 52.7216 50.1691 53.5254 49.673 54.4732 49.4251 55.5649 49.4251 56.6699 49.4251 57.6208 49.673 58.418 50.1691 59.2151 50.6629 59.8286 51.3304 60.2581 52.172 60.6899 53.0111 60.9059 53.9478 60.9059 54.9819L60.9059 55.6262 51.8813 55.6262C51.9676 56.2596 52.1725 56.8387 52.4958 57.3634 52.819 57.886 53.2531 58.3024 53.7979 58.6123 54.3425 58.9201 54.9749 59.0741 55.6943 59.0741 56.4539 59.0741 57.0916 58.9058 57.6077 58.5691 58.1257 58.2305 58.5287 57.7951 58.8167 57.2637L60.5836 57.2637C60.2094 58.2269 59.6161 59.0143 58.8033 59.6255 57.993 60.2344 56.9488 60.5387 55.6711 60.5387ZM51.9012 54.1184 59.2252 54.1184C59.0811 53.1993 58.6938 52.4322 58.0626 51.8164 57.4315 51.1987 56.599 50.8898 55.5649 50.8898 54.5307 50.8898 53.7015 51.1987 53.0769 51.8164 52.4526 52.4322 52.0607 53.1993 51.9012 54.1184ZM67.0878 60.5387C66.3547 60.5387 65.6584 60.3628 64.9985 60.0108 64.3386 59.6585 63.8039 59.1349 63.3941 58.4397 62.9845 57.7422 62.7796 56.8839 62.7796 55.8654L62.7796 49.5945 64.3939 49.5945 64.3939 55.8223C64.3939 56.7989 64.6773 57.5849 65.2443 58.1805 65.8134 58.7763 66.5351 59.0741 67.4098 59.0741 68.0144 59.0741 68.5602 58.9345 69.0473 58.6554 69.5368 58.3743 69.9287 57.99 70.2232 57.5029 70.5177 57.0136 70.6648 56.4456 70.6648 55.799L70.6648 49.5945 72.2791 49.5945 72.2791 60.3661 70.6648 60.3661 70.6648 58.6854C70.2775 59.2035 69.8036 59.6421 69.2433 60.0007 68.6831 60.3596 67.9647 60.5387 67.0878 60.5387ZM75.081 60.3661 75.081 49.5945 76.6953 49.5945 76.6953 52.2449C76.7528 52.0589 76.8634 51.8121 77.0274 51.5043 77.1934 51.1944 77.4337 50.882 77.7481 50.5675 78.0648 50.2511 78.4633 49.9818 78.9438 49.7605 79.4265 49.5369 79.9978 49.4251 80.6577 49.4251L80.7673 49.4251 80.7673 51.0392 80.5714 51.0392C79.7677 51.0392 79.0745 51.2585 78.492 51.6968 77.9119 52.1354 77.467 52.7034 77.1569 53.4009 76.849 54.0962 76.6953 54.8381 76.6953 55.6262L76.6953 60.3661 75.081 60.3661ZM86.776 60.5387C85.7265 60.5387 84.8109 60.2909 84.0292 59.7948 83.2474 59.2987 82.6407 58.6279 82.2089 57.782 81.7772 56.9339 81.5611 56.0004 81.5611 54.9819 81.5611 53.9478 81.7772 53.0111 82.2089 52.172 82.6407 51.3304 83.2474 50.6629 84.0292 50.1691 84.8109 49.673 85.7265 49.4251 86.776 49.4251 87.6663 49.4251 88.4302 49.5978 89.0679 49.9432 89.7078 50.2864 90.2292 50.7525 90.6324 51.3415L90.6324 49.5945 92.2465 49.5945 92.2465 60.3661 90.6324 60.3661 90.6324 58.6423C90.2292 59.2179 89.7078 59.6785 89.0679 60.0239 88.4302 60.3671 87.6663 60.5387 86.776 60.5387ZM86.992 59.0741C87.7958 59.0741 88.4733 58.8881 89.0247 58.5161 89.5784 58.1419 89.999 57.6425 90.287 57.0179 90.5747 56.3913 90.7188 55.7127 90.7188 54.9819 90.7188 54.2357 90.5747 53.5536 90.287 52.9359 89.999 52.3181 89.5784 51.8232 89.0247 51.451 88.4733 51.077 87.7958 50.8898 86.992 50.8898 86.2014 50.8898 85.5183 51.077 84.9427 51.451 84.3691 51.8232 83.9317 52.3181 83.6307 52.9359 83.3294 53.5536 83.1787 54.2357 83.1787 54.9819 83.1787 55.7127 83.3294 56.3913 83.6307 57.0179 83.9317 57.6425 84.3691 58.1419 84.9427 58.5161 85.5183 58.8881 86.2014 59.0741 86.992 59.0741ZM95.0486 60.3661 95.0486 45.2863 96.6629 45.2863 96.6629 60.3661 95.0486 60.3661Z" fill="#2D92FF" fill-rule="nonzero" fill-opacity="1" transform="matrix(1.02238 0 0 1 406.852 189.89)"/></g></g></g></svg>