<svg width="312" height="53" xmlns="http://www.w3.org/2000/svg" xmlns:xlink="http://www.w3.org/1999/xlink" overflow="hidden"><defs><clipPath id="clip0"><rect x="436" y="229" width="312" height="53"/></clipPath><clipPath id="clip1"><rect x="436" y="230" width="312" height="52"/></clipPath><clipPath id="clip2"><rect x="436" y="230" width="312" height="52"/></clipPath></defs><g clip-path="url(#clip0)" transform="translate(-436 -229)"><g clip-path="url(#clip1)"><g clip-path="url(#clip2)"><path d="M0 0 408.148 0 408.148 229.583 0 229.583Z" fill="#FFFFFF" fill-rule="evenodd" fill-opacity="1" transform="matrix(1.01587 0 0 1 378.076 149.78)"/><path d="M55.9308 79.0886 364.88 79.0886 364.88 132.464 55.9308 132.464Z" fill="#2D92FF" fill-rule="evenodd" fill-opacity="1" transform="matrix(1.01587 0 0 1 378.076 149.78)"/><path d="M212.78 119.928 212.78 91.2101 225.793 91.2101C228.902 91.2101 231.371 92.0736 233.2 93.8007 235.029 95.5238 235.944 97.8399 235.944 100.749 235.944 103.659 235.029 105.978 233.2 107.705 231.371 109.432 228.902 110.295 225.793 110.295L217.536 110.295 217.536 119.928 212.78 119.928ZM217.536 105.738 225.587 105.738C227.483 105.738 228.889 105.302 229.806 104.43 230.727 103.557 231.188 102.331 231.188 100.749 231.188 99.1995 230.727 97.9882 229.806 97.1156 228.889 96.2435 227.483 95.8069 225.587 95.8069L217.536 95.8069 217.536 105.738ZM237.754 119.928 237.754 97.8197 242.517 97.8197 241.666 103.692C241.25 103.117 241.215 102.508 241.56 101.865 241.906 101.219 242.41 100.563 243.074 99.8991 243.739 99.2303 244.578 98.6635 245.592 98.1987 246.606 97.7293 247.803 97.4946 249.18 97.4946L250.229 97.4946 250.229 102.258 249.013 102.258C247.68 102.258 246.529 102.62 245.559 103.347 244.594 104.073 243.845 105.036 243.314 106.237 242.782 107.432 242.517 108.719 242.517 110.096L242.517 119.928 237.754 119.928ZM261.016 120.253C258.788 120.253 256.844 119.742 255.184 118.719 253.523 117.696 252.249 116.317 251.364 114.58 250.482 112.844 250.042 110.942 250.042 108.874 250.042 106.779 250.482 104.87 251.364 103.148 252.249 101.425 253.523 100.052 255.184 99.0289 256.844 98.0059 258.788 97.4946 261.016 97.4946 263.275 97.4946 265.226 98.0059 266.869 99.0289 268.516 100.052 269.78 101.425 270.662 103.148 271.543 104.87 271.984 106.779 271.984 108.874 271.984 110.942 271.543 112.844 270.662 114.58 269.78 116.317 268.516 117.696 266.869 118.719 265.226 119.742 263.275 120.253 261.016 120.253ZM261.016 115.776C262.367 115.776 263.496 115.471 264.404 114.859 265.316 114.244 266.014 113.409 266.497 112.355 266.984 111.296 267.228 110.136 267.228 108.874 267.228 107.585 266.984 106.42 266.497 105.38 266.014 104.334 265.316 103.506 264.404 102.895 263.496 102.28 262.367 101.972 261.016 101.972 259.692 101.972 258.567 102.28 257.642 102.895 256.716 103.511 256.012 104.339 255.529 105.38 255.047 106.42 254.805 107.585 254.805 108.874 254.805 110.136 255.047 111.296 255.529 112.355 256.012 113.409 256.716 114.244 257.642 114.859 258.567 115.471 259.692 115.776 261.016 115.776ZM274.324 128.013 274.324 97.8197 279.087 97.8197 278.861 99.9127C278.817 99.7133 279.461 99.2616 280.794 98.557 282.131 97.8489 283.715 97.4946 285.544 97.4946 287.692 97.4946 289.574 98.0079 291.19 99.0355 292.811 100.059 294.062 101.431 294.943 103.154 295.829 104.872 296.272 106.779 296.272 108.874 296.272 110.942 295.829 112.844 294.943 114.58 294.062 116.312 292.811 117.691 291.19 118.719 289.574 119.742 287.692 120.253 285.544 120.253 283.71 120.253 282.127 119.888 280.794 119.158 279.461 118.422 278.817 117.957 278.861 117.763L279.087 128.013 274.324 128.013ZM285.132 115.776C286.492 115.776 287.638 115.468 288.573 114.852 289.512 114.237 290.236 113.402 290.745 112.348 291.254 111.29 291.509 110.132 291.509 108.874 291.509 107.594 291.254 106.434 290.745 105.393 290.236 104.348 289.512 103.517 288.573 102.902 287.638 102.282 286.492 101.972 285.132 101.972 283.812 101.972 282.689 102.28 281.764 102.895 280.838 103.511 280.134 104.339 279.651 105.38 279.168 106.42 278.927 107.585 278.927 108.874 278.927 110.136 279.168 111.296 279.651 112.355 280.134 113.409 280.838 114.244 281.764 114.859 282.689 115.471 283.812 115.776 285.132 115.776ZM298.609 119.928 298.609 89.6556 303.371 89.6556 303.132 100.019C303.07 99.8415 303.626 99.3767 304.8 98.6237 305.973 97.8707 307.473 97.4946 309.297 97.4946 310.856 97.4946 312.32 97.8641 313.688 98.604 315.061 99.3388 316.175 100.435 317.03 101.892 317.884 103.345 318.312 105.114 318.312 107.2L318.312 119.928 313.549 119.928 313.549 107.28C313.549 105.659 313.099 104.37 312.2 103.413 311.301 102.452 310.129 101.972 308.686 101.972 307.69 101.972 306.793 102.193 305.995 102.636 305.202 103.079 304.567 103.704 304.089 104.51 303.611 105.316 303.371 106.254 303.371 107.326L303.371 119.928 298.609 119.928ZM331.621 120.253C329.393 120.253 327.438 119.744 325.755 118.726 324.072 117.702 322.766 116.323 321.836 114.587 320.91 112.851 320.448 110.947 320.448 108.874 320.448 106.779 320.888 104.87 321.769 103.148 322.655 101.425 323.928 100.052 325.589 99.0289 327.25 98.0059 329.194 97.4946 331.422 97.4946 333.68 97.4946 335.631 98.0059 337.274 99.0289 338.922 100.052 340.186 101.425 341.067 103.148 341.948 104.87 342.389 106.779 342.389 108.874L342.389 110.947 325.416 110.947C325.474 111.385 325.773 112.045 326.313 112.926 326.858 113.803 327.582 114.498 328.485 115.012 329.393 115.521 330.452 115.776 331.661 115.776 332.936 115.776 333.997 115.501 334.843 114.952 335.693 114.399 336.437 113.531 337.075 112.348L342.17 112.348C341.103 115.094 339.73 117.098 338.052 118.36 336.378 119.622 334.234 120.253 331.621 120.253ZM325.49 106.39 337.367 106.39C337.225 105.49 336.63 104.529 335.58 103.506 334.535 102.483 333.149 101.972 331.422 101.972 329.694 101.972 328.313 102.483 327.276 103.506 326.24 104.529 325.645 105.49 325.49 106.39ZM346.649 119.928 346.649 102.218 342.483 102.218 342.483 97.8197 346.649 97.8197 346.649 90.5126 351.412 90.5126 351.412 97.8197 356.102 97.8197 356.102 102.218 351.412 102.218 351.412 119.928 346.649 119.928Z" fill="#FFFFFF" fill-rule="nonzero" fill-opacity="1" transform="matrix(1.01587 0 0 1 378.076 149.78)"/><path d="M63.5755 83.8893 201.272 83.8893 201.272 127.663 63.5755 127.663Z" fill="#FFFFFF" fill-rule="evenodd" fill-opacity="1" transform="matrix(1.01587 0 0 1 378.076 149.78)"/><path d="M70.8897 120.732 70.8897 92.2134 74.6361 92.2134 92.2604 116.208 92.2604 92.2134 95.4884 92.2134 95.4884 120.732 91.742 120.732 74.1248 96.6513 74.1248 120.732 70.8897 120.732ZM111.342 121.077C109.159 121.077 107.248 120.582 105.609 119.59 103.975 118.597 102.704 117.256 101.796 115.564 100.893 113.868 100.441 112.001 100.441 109.964 100.441 107.896 100.873 106.022 101.737 104.344 102.6 102.661 103.836 101.326 105.443 100.338 107.051 99.3459 108.946 98.8503 111.13 98.8503 113.34 98.8503 115.242 99.3459 116.836 100.338 118.43 101.326 119.657 102.661 120.516 104.344 121.38 106.022 121.812 107.896 121.812 109.964L121.812 111.252 103.763 111.252C103.935 112.519 104.345 113.677 104.992 114.727 105.638 115.772 106.506 116.605 107.596 117.225 108.685 117.84 109.95 118.148 111.389 118.148 112.908 118.148 114.183 117.812 115.215 117.138 116.251 116.461 117.057 115.59 117.633 114.527L121.167 114.527C120.419 116.454 119.232 118.029 117.607 119.251 115.986 120.469 113.898 121.077 111.342 121.077ZM103.802 108.237 118.45 108.237C118.162 106.399 117.388 104.864 116.125 103.633 114.863 102.397 113.198 101.78 111.13 101.78 109.061 101.78 107.403 102.397 106.154 103.633 104.905 104.864 104.121 106.399 103.802 108.237ZM134.176 121.077C132.709 121.077 131.317 120.726 129.997 120.022 128.677 119.317 127.608 118.27 126.788 116.879 125.969 115.484 125.559 113.768 125.559 111.731L125.559 99.1889 128.788 99.1889 128.788 111.645C128.788 113.598 129.355 115.17 130.489 116.361 131.627 117.553 133.07 118.148 134.82 118.148 136.029 118.148 137.12 117.869 138.095 117.311 139.074 116.749 139.857 115.98 140.446 115.006 141.035 114.027 141.33 112.891 141.33 111.598L141.33 99.1889 144.558 99.1889 144.558 120.732 141.33 120.732 141.33 117.371C140.555 118.407 139.607 119.284 138.487 120.001 137.366 120.719 135.929 121.077 134.176 121.077ZM150.162 120.732 150.162 99.1889 153.391 99.1889 153.391 104.49C153.506 104.118 153.727 103.624 154.055 103.009 154.387 102.389 154.867 101.764 155.496 101.135 156.13 100.502 156.927 99.9637 157.888 99.521 158.853 99.0739 159.996 98.8503 161.315 98.8503L161.535 98.8503 161.535 102.078 161.143 102.078C159.535 102.078 158.149 102.517 156.984 103.394 155.824 104.271 154.934 105.407 154.314 106.802 153.698 108.192 153.391 109.676 153.391 111.252L153.391 120.732 150.162 120.732ZM173.552 121.077C171.453 121.077 169.622 120.582 168.058 119.59 166.495 118.597 165.281 117.256 164.418 115.564 163.554 113.868 163.122 112.001 163.122 109.964 163.122 107.896 163.554 106.022 164.418 104.344 165.281 102.661 166.495 101.326 168.058 100.338 169.622 99.3459 171.453 98.8503 173.552 98.8503 175.333 98.8503 176.86 99.1955 178.136 99.8864 179.416 100.573 180.458 101.505 181.265 102.683L181.265 99.1889 184.493 99.1889 184.493 120.732 181.265 120.732 181.265 117.285C180.458 118.436 179.416 119.357 178.136 120.048 176.86 120.734 175.333 121.077 173.552 121.077ZM173.984 118.148C175.592 118.148 176.947 117.776 178.049 117.032 179.157 116.284 179.998 115.285 180.574 114.036 181.149 112.783 181.438 111.425 181.438 109.964 181.438 108.471 181.149 107.107 180.574 105.872 179.998 104.636 179.157 103.646 178.049 102.902 176.947 102.154 175.592 101.78 173.984 101.78 172.403 101.78 171.037 102.154 169.885 102.902 168.738 103.646 167.863 104.636 167.261 105.872 166.659 107.107 166.357 108.471 166.357 109.964 166.357 111.425 166.659 112.783 167.261 114.036 167.863 115.285 168.738 116.284 169.885 117.032 171.037 117.776 172.403 118.148 173.984 118.148ZM190.097 120.732 190.097 90.5726 193.326 90.5726 193.326 120.732 190.097 120.732Z" fill="#2D92FF" fill-rule="nonzero" fill-opacity="1" transform="matrix(1.01587 0 0 1 378.076 149.78)"/></g></g></g></svg>