<svg width="200" height="35" xmlns="http://www.w3.org/2000/svg" xmlns:xlink="http://www.w3.org/1999/xlink" overflow="hidden"><defs><clipPath id="clip0"><rect x="434" y="229" width="200" height="35"/></clipPath><clipPath id="clip1"><rect x="435" y="230" width="199" height="33"/></clipPath><clipPath id="clip2"><rect x="435" y="230" width="199" height="33"/></clipPath><clipPath id="clip3"><rect x="435" y="230" width="199" height="33"/></clipPath><clipPath id="clip4"><rect x="435" y="230" width="199" height="33"/></clipPath><clipPath id="clip5"><rect x="435" y="230" width="199" height="33"/></clipPath><clipPath id="clip6"><rect x="435" y="230" width="199" height="33"/></clipPath></defs><g clip-path="url(#clip0)" transform="translate(-434 -229)"><g clip-path="url(#clip1)"><g clip-path="url(#clip2)"><g clip-path="url(#clip3)"><g clip-path="url(#clip4)"><g clip-path="url(#clip5)"><g clip-path="url(#clip6)"><path d="M0 0 256.603 0 256.603 144.339 0 144.339Z" fill="#FFFFFF" fill-rule="evenodd" fill-opacity="1" transform="matrix(1.02794 0 0 1 398.666 179.577)"/><path d="M35.1637 49.7231 229.4 49.7231 229.4 83.2803 35.1637 83.2803Z" fill="#2D92FF" fill-rule="evenodd" fill-opacity="1" transform="matrix(1.02794 0 0 1 398.666 179.577)"/><path d="M133.775 75.3987 133.775 57.3438 141.956 57.3438C143.911 57.3438 145.463 57.8868 146.613 58.9726 147.763 60.0559 148.338 61.512 148.338 63.3413 148.338 65.1706 147.763 66.6283 146.613 67.7141 145.463 68.7999 143.911 69.3428 141.956 69.3428L136.765 69.3428 136.765 75.3987 133.775 75.3987ZM136.765 66.4779 141.827 66.4779C143.019 66.4779 143.903 66.2037 144.479 65.6551 145.058 65.1065 145.348 64.3354 145.348 63.3413 145.348 62.3668 145.058 61.6053 144.479 61.0567 143.903 60.5084 143.019 60.2339 141.827 60.2339L136.765 60.2339 136.765 66.4779ZM149.476 75.3987 149.476 61.4993 152.47 61.4993 151.936 65.1915C151.674 64.8295 151.652 64.4468 151.869 64.0428 152.086 63.6364 152.404 63.2242 152.821 62.8066 153.239 62.3862 153.767 62.0298 154.404 61.7376 155.042 61.4425 155.794 61.295 156.66 61.295L157.319 61.295 157.319 64.2894 156.555 64.2894C155.717 64.2894 154.993 64.5175 154.383 64.9741 153.776 65.4311 153.306 66.0365 152.971 66.791 152.637 67.5427 152.47 68.3516 152.47 69.2175L152.47 75.3987 149.476 75.3987ZM164.101 75.6033C162.7 75.6033 161.478 75.2819 160.434 74.6387 159.39 73.9955 158.589 73.1283 158.033 72.0368 157.479 70.9452 157.202 69.7493 157.202 68.449 157.202 67.1321 157.479 65.9321 158.033 64.8491 158.589 63.7658 159.39 62.9028 160.434 62.2596 161.478 61.6164 162.7 61.295 164.101 61.295 165.521 61.295 166.748 61.6164 167.781 62.2596 168.816 62.9028 169.611 63.7658 170.165 64.8491 170.719 65.9321 170.996 67.1321 170.996 68.449 170.996 69.7493 170.719 70.9452 170.165 72.0368 169.611 73.1283 168.816 73.9955 167.781 74.6387 166.748 75.2819 165.521 75.6033 164.101 75.6033ZM164.101 72.7885C164.95 72.7885 165.66 72.5965 166.231 72.2122 166.805 71.8251 167.243 71.3003 167.547 70.6375 167.853 69.9721 168.006 69.2426 168.006 68.449 168.006 67.6389 167.853 66.9065 167.547 66.2523 167.243 65.5951 166.805 65.0744 166.231 64.6901 165.66 64.3034 164.95 64.1098 164.101 64.1098 163.268 64.1098 162.561 64.3034 161.98 64.6901 161.398 65.0773 160.955 65.598 160.651 66.2523 160.348 66.9065 160.196 67.6389 160.196 68.449 160.196 69.2426 160.348 69.9721 160.651 70.6375 160.955 71.3003 161.398 71.8251 161.98 72.2122 162.561 72.5965 163.268 72.7885 164.101 72.7885ZM172.468 80.4816 172.468 61.4993 175.462 61.4993 175.32 62.8152C175.292 62.6898 175.697 62.4059 176.535 61.9629 177.376 61.5177 178.372 61.295 179.522 61.295 180.872 61.295 182.055 61.6177 183.072 62.2637 184.09 62.9069 184.877 63.77 185.431 64.8532 185.988 65.9334 186.267 67.1321 186.267 68.449 186.267 69.7493 185.988 70.9452 185.431 72.0368 184.877 73.1255 184.09 73.9927 183.072 74.6387 182.055 75.2819 180.872 75.6033 179.522 75.6033 178.369 75.6033 177.373 75.3736 176.535 74.9144 175.697 74.4521 175.292 74.1599 175.32 74.0374L175.462 80.4816 172.468 80.4816ZM179.263 72.7885C180.117 72.7885 180.838 72.5949 181.426 72.2078 182.016 71.821 182.472 71.2962 182.792 70.6333 183.112 69.9679 183.272 69.24 183.272 68.449 183.272 67.6446 183.112 66.9151 182.792 66.2605 182.472 65.6037 182.016 65.0814 181.426 64.6946 180.838 64.3046 180.117 64.1098 179.263 64.1098 178.433 64.1098 177.727 64.3034 177.145 64.6901 176.563 65.0773 176.12 65.598 175.817 66.2523 175.513 66.9065 175.362 67.6389 175.362 68.449 175.362 69.2426 175.513 69.9721 175.817 70.6375 176.12 71.3003 176.563 71.8251 177.145 72.2122 177.727 72.5965 178.433 72.7885 179.263 72.7885ZM187.735 75.3987 187.735 56.3665 190.73 56.3665 190.579 62.8818C190.54 62.7704 190.89 62.4782 191.628 62.0048 192.366 61.5314 193.308 61.295 194.455 61.295 195.436 61.295 196.356 61.5272 197.216 61.9924 198.079 62.4544 198.779 63.1436 199.317 64.0597 199.854 64.9729 200.123 66.0854 200.123 67.3968L200.123 75.3987 197.128 75.3987 197.128 67.4469C197.128 66.4277 196.846 65.6173 196.281 65.016 195.715 64.4119 194.979 64.1098 194.071 64.1098 193.445 64.1098 192.881 64.2491 192.38 64.5274 191.881 64.806 191.482 65.1985 191.181 65.7052 190.88 66.212 190.73 66.8022 190.73 67.4761L190.73 75.3987 187.735 75.3987ZM208.49 75.6033C207.09 75.6033 205.861 75.2831 204.802 74.6428 203.745 73.9996 202.923 73.1324 202.339 72.0409 201.757 70.9494 201.466 69.7522 201.466 68.449 201.466 67.1321 201.743 65.9321 202.297 64.8491 202.854 63.7658 203.654 62.9028 204.698 62.2596 205.742 61.6164 206.965 61.295 208.365 61.295 209.785 61.295 211.012 61.6164 212.045 62.2596 213.08 62.9028 213.875 63.7658 214.429 64.8491 214.983 65.9321 215.26 67.1321 215.26 68.449L215.26 69.7522 204.59 69.7522C204.626 70.0279 204.814 70.4426 205.153 70.9966 205.496 71.5481 205.951 71.9851 206.519 72.3081 207.09 72.6282 207.755 72.7885 208.516 72.7885 209.317 72.7885 209.984 72.6159 210.516 72.2706 211.051 71.9225 211.518 71.3768 211.919 70.6333L215.123 70.6333C214.451 72.3598 213.588 73.6195 212.533 74.4131 211.481 75.2067 210.133 75.6033 208.49 75.6033ZM204.636 66.8872 212.103 66.8872C212.014 66.3217 211.639 65.7176 210.979 65.0744 210.322 64.4312 209.451 64.1098 208.365 64.1098 207.279 64.1098 206.411 64.4312 205.759 65.0744 205.107 65.7176 204.733 66.3217 204.636 66.8872ZM217.938 75.3987 217.938 64.2643 215.32 64.2643 215.32 61.4993 217.938 61.4993 217.938 56.9053 220.933 56.9053 220.933 61.4993 223.882 61.4993 223.882 64.2643 220.933 64.2643 220.933 75.3987 217.938 75.3987Z" fill="#FFFFFF" fill-rule="nonzero" fill-opacity="1" transform="matrix(1.02794 0 0 1 398.666 179.577)"/><path d="M39.97 52.7413 126.54 52.7413 126.54 80.262 39.97 80.262Z" fill="#FFFFFF" fill-rule="evenodd" fill-opacity="1" transform="matrix(1.02794 0 0 1 398.666 179.577)"/><path d="M44.5684 75.9044 44.5684 57.9746 46.9238 57.9746 58.0042 73.0601 58.0042 57.9746 60.0337 57.9746 60.0337 75.9044 57.6783 75.9044 46.6023 60.7647 46.6023 75.9044 44.5684 75.9044ZM70.0009 76.1215C68.6283 76.1215 67.4269 75.8099 66.3966 75.1861 65.3692 74.5622 64.5702 73.7188 63.9994 72.6552 63.4314 71.5887 63.1474 70.415 63.1474 69.1344 63.1474 67.834 63.4187 66.6562 63.9619 65.6011 64.5048 64.5429 65.2816 63.7036 66.2922 63.0827 67.3029 62.4588 68.4947 62.1472 69.8673 62.1472 71.2568 62.1472 72.4525 62.4588 73.4548 63.0827 74.4572 63.7036 75.2286 64.5429 75.7686 65.6011 76.3115 66.6562 76.5832 67.834 76.5832 69.1344L76.5832 69.9445 65.2356 69.9445C65.3441 70.7409 65.6018 71.4691 66.0082 72.1288 66.4147 72.7859 66.9605 73.3095 67.6456 73.6992 68.3303 74.0863 69.1255 74.2798 70.0301 74.2798 70.9852 74.2798 71.7871 74.0682 72.436 73.6449 73.0874 73.2191 73.5941 72.6717 73.9562 72.0035L76.178 72.0035C75.7074 73.2146 74.9614 74.2046 73.9394 74.9731 72.9205 75.7388 71.6075 76.1215 70.0009 76.1215ZM65.2607 68.0485 74.4699 68.0485C74.2887 66.8929 73.8016 65.9283 73.0081 65.1541 72.2145 64.3773 71.1677 63.9889 69.8673 63.9889 68.567 63.9889 67.5243 64.3773 66.739 65.1541 65.954 65.9283 65.4612 66.8929 65.2607 68.0485ZM84.3562 76.1215C83.4345 76.1215 82.559 75.9003 81.7293 75.4577 80.8995 75.0147 80.2271 74.3563 79.7118 73.4821 79.1968 72.6051 78.9392 71.5259 78.9392 70.2453L78.9392 62.3602 80.969 62.3602 80.969 70.191C80.969 71.419 81.3253 72.4074 82.0383 73.1562 82.7538 73.9054 83.6613 74.2798 84.7611 74.2798 85.5214 74.2798 86.2077 74.1044 86.8201 73.7534 87.4357 73.3999 87.9285 72.9167 88.2988 72.3043 88.6691 71.689 88.8541 70.9747 88.8541 70.1618L88.8541 62.3602 90.8839 62.3602 90.8839 75.9044 88.8541 75.9044 88.8541 73.7912C88.367 74.4426 87.7711 74.9941 87.0667 75.445 86.3623 75.8962 85.4589 76.1215 84.3562 76.1215ZM94.407 75.9044 94.407 62.3602 96.4368 62.3602 96.4368 65.6928C96.5091 65.459 96.6481 65.1487 96.8544 64.7615 97.0631 64.3719 97.3652 63.9791 97.7606 63.5837 98.1588 63.1858 98.6598 62.8472 99.264 62.5689 99.871 62.2878 100.589 62.1472 101.419 62.1472L101.557 62.1472 101.557 64.1768 101.311 64.1768C100.3 64.1768 99.4284 64.4525 98.696 65.0037 97.9665 65.5551 97.4071 66.2694 97.0171 67.1464 96.63 68.0206 96.4368 68.9535 96.4368 69.9445L96.4368 75.9044 94.407 75.9044ZM109.112 76.1215C107.793 76.1215 106.641 75.8099 105.658 75.1861 104.675 74.5622 103.913 73.7188 103.37 72.6552 102.827 71.5887 102.555 70.415 102.555 69.1344 102.555 67.834 102.827 66.6562 103.37 65.6011 103.913 64.5429 104.675 63.7036 105.658 63.0827 106.641 62.4588 107.793 62.1472 109.112 62.1472 110.232 62.1472 111.192 62.3643 111.994 62.7987 112.799 63.2302 113.454 63.8163 113.961 64.5569L113.961 62.3602 115.991 62.3602 115.991 75.9044 113.961 75.9044 113.961 73.7369C113.454 74.4607 112.799 75.0398 111.994 75.4742 111.192 75.9057 110.232 76.1215 109.112 76.1215ZM109.384 74.2798C110.395 74.2798 111.246 74.046 111.94 73.5783 112.636 73.1077 113.165 72.4797 113.527 71.6944 113.889 70.9065 114.07 70.0533 114.07 69.1344 114.07 68.1961 113.889 67.3384 113.527 66.5616 113.165 65.7849 112.636 65.1626 111.94 64.6946 111.246 64.2243 110.395 63.9889 109.384 63.9889 108.39 63.9889 107.531 64.2243 106.807 64.6946 106.086 65.1626 105.536 65.7849 105.157 66.5616 104.778 67.3384 104.589 68.1961 104.589 69.1344 104.589 70.0533 104.778 70.9065 105.157 71.6944 105.536 72.4797 106.086 73.1077 106.807 73.5783 107.531 74.046 108.39 74.2798 109.384 74.2798ZM119.514 75.9044 119.514 56.9431 121.544 56.9431 121.544 75.9044 119.514 75.9044Z" fill="#2D92FF" fill-rule="nonzero" fill-opacity="1" transform="matrix(1.02794 0 0 1 398.666 179.577)"/></g></g></g></g></g></g></g></svg>